<mxfile host="app.diagrams.net" agent="Mozilla/5.0 (Windows NT 10.0; Win64; x64) AppleWebKit/537.36 (KHTML, like Gecko) Chrome/134.0.0.0 Safari/537.36" version="26.1.2">
  <diagram name="Page-1" id="lAYfJ6FtZpQ7fdpQT9nR">
    <mxGraphModel dx="928" dy="494" grid="1" gridSize="10" guides="1" tooltips="1" connect="1" arrows="1" fold="1" page="1" pageScale="1" pageWidth="827" pageHeight="1169" math="0" shadow="0">
      <root>
        <mxCell id="0" />
        <mxCell id="1" parent="0" />
        <mxCell id="ZLyRoxE7xoCqURJKjHI5-3" value="" style="rounded=0;whiteSpace=wrap;html=1;" vertex="1" parent="1">
          <mxGeometry x="180" y="40" width="410" height="710" as="geometry" />
        </mxCell>
        <mxCell id="ZLyRoxE7xoCqURJKjHI5-4" value="Consumer" style="shape=umlActor;verticalLabelPosition=bottom;verticalAlign=top;html=1;outlineConnect=0;" vertex="1" parent="1">
          <mxGeometry x="100" y="220" width="30" height="60" as="geometry" />
        </mxCell>
        <mxCell id="ZLyRoxE7xoCqURJKjHI5-5" value="Retailer" style="shape=umlActor;verticalLabelPosition=bottom;verticalAlign=top;html=1;outlineConnect=0;" vertex="1" parent="1">
          <mxGeometry x="90" y="385" width="30" height="60" as="geometry" />
        </mxCell>
        <mxCell id="ZLyRoxE7xoCqURJKjHI5-6" value="Manufacturer" style="shape=umlActor;verticalLabelPosition=bottom;verticalAlign=top;html=1;outlineConnect=0;" vertex="1" parent="1">
          <mxGeometry x="100" y="579.5" width="30" height="60" as="geometry" />
        </mxCell>
        <mxCell id="ZLyRoxE7xoCqURJKjHI5-7" value="Receive alerts" style="ellipse;whiteSpace=wrap;html=1;" vertex="1" parent="1">
          <mxGeometry x="330" y="160" width="120" height="50" as="geometry" />
        </mxCell>
        <mxCell id="ZLyRoxE7xoCqURJKjHI5-8" value="Scan QR code" style="ellipse;whiteSpace=wrap;html=1;" vertex="1" parent="1">
          <mxGeometry x="390" y="270" width="120" height="50" as="geometry" />
        </mxCell>
        <mxCell id="ZLyRoxE7xoCqURJKjHI5-9" value="Verify product" style="ellipse;whiteSpace=wrap;html=1;" vertex="1" parent="1">
          <mxGeometry x="234" y="390" width="120" height="50" as="geometry" />
        </mxCell>
        <mxCell id="ZLyRoxE7xoCqURJKjHI5-10" value="Update product" style="ellipse;whiteSpace=wrap;html=1;" vertex="1" parent="1">
          <mxGeometry x="430" y="370" width="120" height="50" as="geometry" />
        </mxCell>
        <mxCell id="ZLyRoxE7xoCqURJKjHI5-11" value="Upload product" style="ellipse;whiteSpace=wrap;html=1;" vertex="1" parent="1">
          <mxGeometry x="390" y="470" width="120" height="50" as="geometry" />
        </mxCell>
        <mxCell id="ZLyRoxE7xoCqURJKjHI5-16" value="" style="endArrow=classic;html=1;rounded=0;entryX=0;entryY=0.5;entryDx=0;entryDy=0;" edge="1" parent="1" source="ZLyRoxE7xoCqURJKjHI5-4" target="ZLyRoxE7xoCqURJKjHI5-7">
          <mxGeometry width="50" height="50" relative="1" as="geometry">
            <mxPoint x="190" y="240" as="sourcePoint" />
            <mxPoint x="240" y="190" as="targetPoint" />
          </mxGeometry>
        </mxCell>
        <mxCell id="ZLyRoxE7xoCqURJKjHI5-18" value="" style="endArrow=classic;html=1;rounded=0;entryX=0.073;entryY=0.277;entryDx=0;entryDy=0;entryPerimeter=0;" edge="1" parent="1" target="ZLyRoxE7xoCqURJKjHI5-9">
          <mxGeometry width="50" height="50" relative="1" as="geometry">
            <mxPoint x="130" y="250" as="sourcePoint" />
            <mxPoint x="364" y="255" as="targetPoint" />
          </mxGeometry>
        </mxCell>
        <mxCell id="ZLyRoxE7xoCqURJKjHI5-19" value="" style="endArrow=classic;html=1;rounded=0;entryX=0;entryY=0.5;entryDx=0;entryDy=0;" edge="1" parent="1" source="ZLyRoxE7xoCqURJKjHI5-5" target="ZLyRoxE7xoCqURJKjHI5-9">
          <mxGeometry width="50" height="50" relative="1" as="geometry">
            <mxPoint x="190" y="430" as="sourcePoint" />
            <mxPoint x="354" y="432.5" as="targetPoint" />
          </mxGeometry>
        </mxCell>
        <mxCell id="ZLyRoxE7xoCqURJKjHI5-23" value="" style="endArrow=classic;html=1;rounded=0;entryX=0.067;entryY=0.713;entryDx=0;entryDy=0;entryPerimeter=0;" edge="1" parent="1" source="ZLyRoxE7xoCqURJKjHI5-6" target="ZLyRoxE7xoCqURJKjHI5-9">
          <mxGeometry width="50" height="50" relative="1" as="geometry">
            <mxPoint x="640" y="420" as="sourcePoint" />
            <mxPoint x="360" y="350" as="targetPoint" />
          </mxGeometry>
        </mxCell>
        <mxCell id="ZLyRoxE7xoCqURJKjHI5-25" value="Manage users" style="ellipse;whiteSpace=wrap;html=1;" vertex="1" parent="1">
          <mxGeometry x="312" y="570" width="120" height="50" as="geometry" />
        </mxCell>
        <mxCell id="ZLyRoxE7xoCqURJKjHI5-26" value="Oversee system" style="ellipse;whiteSpace=wrap;html=1;" vertex="1" parent="1">
          <mxGeometry x="310" y="660" width="120" height="50" as="geometry" />
        </mxCell>
        <mxCell id="ZLyRoxE7xoCqURJKjHI5-27" value="Admin" style="shape=umlActor;verticalLabelPosition=bottom;verticalAlign=top;html=1;outlineConnect=0;" vertex="1" parent="1">
          <mxGeometry x="640" y="610" width="30" height="60" as="geometry" />
        </mxCell>
        <mxCell id="ZLyRoxE7xoCqURJKjHI5-28" value="" style="endArrow=classic;html=1;rounded=0;entryX=1;entryY=0.5;entryDx=0;entryDy=0;" edge="1" parent="1" target="ZLyRoxE7xoCqURJKjHI5-25">
          <mxGeometry width="50" height="50" relative="1" as="geometry">
            <mxPoint x="640" y="640" as="sourcePoint" />
            <mxPoint x="474" y="610" as="targetPoint" />
          </mxGeometry>
        </mxCell>
        <mxCell id="ZLyRoxE7xoCqURJKjHI5-29" value="" style="endArrow=classic;html=1;rounded=0;entryX=1;entryY=0.5;entryDx=0;entryDy=0;" edge="1" parent="1" target="ZLyRoxE7xoCqURJKjHI5-26">
          <mxGeometry width="50" height="50" relative="1" as="geometry">
            <mxPoint x="640" y="640" as="sourcePoint" />
            <mxPoint x="484" y="620" as="targetPoint" />
          </mxGeometry>
        </mxCell>
        <mxCell id="ZLyRoxE7xoCqURJKjHI5-30" value="&lt;font style=&quot;font-size: 24px;&quot;&gt;Fake Product Identification System&lt;/font&gt;" style="text;html=1;align=center;verticalAlign=middle;whiteSpace=wrap;rounded=0;" vertex="1" parent="1">
          <mxGeometry x="270" y="60" width="230" height="30" as="geometry" />
        </mxCell>
        <mxCell id="ZLyRoxE7xoCqURJKjHI5-34" value="" style="endArrow=classic;html=1;rounded=0;exitX=1;exitY=0;exitDx=0;exitDy=0;dashed=1;" edge="1" parent="1" source="ZLyRoxE7xoCqURJKjHI5-9" target="ZLyRoxE7xoCqURJKjHI5-10">
          <mxGeometry width="50" height="50" relative="1" as="geometry">
            <mxPoint x="310" y="430" as="sourcePoint" />
            <mxPoint x="360" y="380" as="targetPoint" />
          </mxGeometry>
        </mxCell>
        <mxCell id="ZLyRoxE7xoCqURJKjHI5-36" value="&lt;font style=&quot;font-size: 10px;&quot;&gt;&amp;lt;&amp;lt; include &amp;gt;&amp;gt;&lt;/font&gt;" style="edgeLabel;html=1;align=center;verticalAlign=middle;resizable=0;points=[];rotation=0;" vertex="1" connectable="0" parent="ZLyRoxE7xoCqURJKjHI5-34">
          <mxGeometry x="-0.1947" relative="1" as="geometry">
            <mxPoint x="10" y="-9" as="offset" />
          </mxGeometry>
        </mxCell>
        <mxCell id="ZLyRoxE7xoCqURJKjHI5-37" value="" style="endArrow=classic;html=1;rounded=0;exitX=1;exitY=1;exitDx=0;exitDy=0;dashed=1;entryX=0;entryY=0.5;entryDx=0;entryDy=0;" edge="1" parent="1" source="ZLyRoxE7xoCqURJKjHI5-9" target="ZLyRoxE7xoCqURJKjHI5-11">
          <mxGeometry width="50" height="50" relative="1" as="geometry">
            <mxPoint x="363" y="422" as="sourcePoint" />
            <mxPoint x="445" y="392" as="targetPoint" />
          </mxGeometry>
        </mxCell>
        <mxCell id="ZLyRoxE7xoCqURJKjHI5-38" value="&lt;font style=&quot;font-size: 10px;&quot;&gt;&amp;lt;&amp;lt; include &amp;gt;&amp;gt;&lt;/font&gt;" style="edgeLabel;html=1;align=center;verticalAlign=middle;resizable=0;points=[];rotation=50;" vertex="1" connectable="0" parent="ZLyRoxE7xoCqURJKjHI5-37">
          <mxGeometry x="-0.1947" relative="1" as="geometry">
            <mxPoint x="-4" y="12" as="offset" />
          </mxGeometry>
        </mxCell>
        <mxCell id="ZLyRoxE7xoCqURJKjHI5-39" value="" style="endArrow=classic;html=1;rounded=0;exitX=0.686;exitY=-0.008;exitDx=0;exitDy=0;dashed=1;entryX=0;entryY=1;entryDx=0;entryDy=0;exitPerimeter=0;" edge="1" parent="1" source="ZLyRoxE7xoCqURJKjHI5-9" target="ZLyRoxE7xoCqURJKjHI5-8">
          <mxGeometry width="50" height="50" relative="1" as="geometry">
            <mxPoint x="331" y="400" as="sourcePoint" />
            <mxPoint x="413" y="370" as="targetPoint" />
          </mxGeometry>
        </mxCell>
        <mxCell id="ZLyRoxE7xoCqURJKjHI5-40" value="&lt;font style=&quot;font-size: 10px;&quot;&gt;&amp;lt;&amp;lt; include &amp;gt;&amp;gt;&lt;/font&gt;" style="edgeLabel;html=1;align=center;verticalAlign=middle;resizable=0;points=[];rotation=-45;" vertex="1" connectable="0" parent="ZLyRoxE7xoCqURJKjHI5-39">
          <mxGeometry x="-0.1947" relative="1" as="geometry">
            <mxPoint x="-8" y="-8" as="offset" />
          </mxGeometry>
        </mxCell>
      </root>
    </mxGraphModel>
  </diagram>
</mxfile>
